<?xml version="1.0" encoding="UTF-8"?>
<svg height="128px" viewBox="0 0 128 128" width="128px" xmlns="http://www.w3.org/2000/svg" xmlns:xlink="http://www.w3.org/1999/xlink">
    <radialGradient id="a" cx="67.000214" cy="230.159286" gradientTransform="matrix(-0.00192604 1.507437 -1.413465 -0.00180856 392.451355 -40.834747)" gradientUnits="userSpaceOnUse" r="34.988792">
        <stop offset="0" stop-color="#f66151"/>
        <stop offset="0.566254" stop-color="#d91b24"/>
        <stop offset="0.898565" stop-color="#d71d26"/>
        <stop offset="1" stop-color="#a51d2d"/>
    </radialGradient>
    <linearGradient id="b" gradientUnits="userSpaceOnUse">
        <stop offset="0" stop-color="#ed333b"/>
        <stop offset="0.253888" stop-color="#f66151"/>
        <stop offset="0.713859" stop-color="#971319"/>
        <stop offset="0.892918" stop-color="#eb343d"/>
        <stop offset="1" stop-color="#bf1118"/>
    </linearGradient>
    <linearGradient id="c" gradientTransform="matrix(-1 0 0 1 135.999999 -172)" x1="-108.598633" x2="-108.598633" xlink:href="#b" y1="236.495605" y2="270.958496"/>
    <linearGradient id="d" gradientUnits="userSpaceOnUse">
        <stop offset="0" stop-color="#b7b6b4"/>
        <stop offset="0.106155" stop-color="#9a9996"/>
        <stop offset="0.347826" stop-color="#c1c1bf"/>
        <stop offset="0.869565" stop-color="#7f7e7b"/>
        <stop offset="1" stop-color="#acaba9"/>
    </linearGradient>
    <linearGradient id="e" gradientTransform="matrix(-1 0 0 1 -2 -172)" x1="28" x2="28" xlink:href="#d" y1="228" y2="274"/>
    <linearGradient id="f" x1="56.000214" x2="78.000214" xlink:href="#b" y1="53" y2="53"/>
    <linearGradient id="g" x1="-110.598205" x2="-110.598205" xlink:href="#b" y1="64.495605" y2="98.958496"/>
    <linearGradient id="h" x1="30" x2="30" xlink:href="#d" y1="56" y2="102"/>
    <path d="m 67 39.496094 c -14.128906 0.027344 -27.125 7.402344 -34.429688 19.292968 c -1.085937 1.765626 -3.496093 3.257813 -5.570312 3.234376 c -1.082031 -0.015626 -2.1875 -0.023438 -3 -0.023438 c -2.214844 0 -4 1.785156 -4 4 v 28 c 0 2.214844 1.785156 4.023438 4 4 l 3 -0.03125 c 2.074219 -0.023438 4.484375 1.476562 5.570312 3.242188 c 7.304688 11.890624 20.300782 19.265624 34.429688 19.292968 c 14.128906 -0.027344 27.125 -7.402344 34.429688 -19.292968 c 1.085937 -1.765626 3.496093 -3.265626 5.570312 -3.242188 l 3 0.03125 c 2.214844 0.023438 4 -1.785156 4 -4 v -28 c 0 -2.214844 -1.785156 -4.023438 -4 -4 l -2.9375 0.03125 c -2.074219 0.019531 -4.484375 -1.484375 -5.570312 -3.25 c -7.320313 -11.902344 -20.339844 -19.28125 -34.492188 -19.285156 z m 0 0" fill="url(#a)"/>
    <path d="m 116 62 h -7.171875 c -1.8125 0 -3.546875 -0.71875 -4.828125 -2 l -0.585938 -0.585938 c -0.238281 -0.238281 -0.59375 -0.308593 -0.902343 -0.179687 c -0.308594 0.128906 -0.511719 0.429687 -0.511719 0.765625 v 40 c 0 0.335938 0.203125 0.636719 0.511719 0.765625 c 0.308593 0.128906 0.664062 0.058594 0.902343 -0.179687 l 0.585938 -0.585938 c 1.28125 -1.28125 3.015625 -2 4.828125 -2 h 7.171875 z m 0 0" fill="url(#c)"/>
    <path d="m 52 70.949219 v 20.789062 c 0 1.664063 0.839844 3.214844 2.238281 4.121094 c 1.394531 0.90625 3.152344 1.042969 4.671875 0.367187 l 24.40625 -10.84375 c 1.980469 -0.882812 3.238282 -2.867187 3.183594 -5.035156 c -0.050781 -2.167968 -1.398438 -4.089844 -3.417969 -4.875 l -24.035156 -9.347656 c -1.589844 -0.617188 -3.386719 -0.410156 -4.792969 0.554688 c -1.410156 0.960937 -2.253906 2.558593 -2.253906 4.269531 z m 0 0" fill="#ffffff"/>
    <path d="m 52 73.339844 v 20.792968 c 0 1.660157 0.839844 3.210938 2.238281 4.121094 c 1.394531 0.90625 3.152344 1.042969 4.671875 0.367188 l 24.40625 -10.84375 c 1.980469 -0.882813 3.238282 -2.867188 3.183594 -5.035156 c -0.050781 -2.167969 -1.398438 -4.089844 -3.417969 -4.875 l -24.035156 -9.347657 c -1.589844 -0.617187 -3.386719 -0.410156 -4.792969 0.550781 c -1.410156 0.964844 -2.253906 2.5625 -2.253906 4.269532 z m 0 0" fill="#deddda"/>
    <path d="m 122 56 h -8 c -2.207031 0 -4 1.789062 -4 4 v 40 c 0 2.210938 1.792969 4 4 4 h 8 c 2.210938 0 4 -1.789062 4 -4 v -40 c 0 -2.210938 -1.789062 -4 -4 -4 z m 0 0" fill="url(#e)"/>
    <path d="m 67 32.363281 c -6.074219 0 -11 3.132813 -11 7 v 13.636719 c 0 3.867188 4.925781 7 11 7 s 11 -3.132812 11 -7 v -13.636719 c 0 -3.867187 -4.925781 -7 -11 -7 z m 0 0" fill="url(#f)"/>
    <path d="m 47.34375 18 c 5.488281 7.742188 9.230469 12.957031 18 16 l 2 8" fill="none" stroke="#c0bfbc" stroke-width="5"/>
    <path d="m 68.460938 34 c 10.65625 -2 17.230468 -7.640625 22 -14" fill="none" stroke="#c0bfbc" stroke-width="5"/>
    <path d="m 74.207031 34.066406 c 0 2.320313 -3.132812 4.199219 -7 4.199219 c -3.867187 0 -7 -1.878906 -7 -4.199219 c 0 -2.320312 3.132813 -4.203125 7 -4.203125 c 3.867188 0 7 1.882813 7 4.203125 z m 0 0" fill="#c0bfbc"/>
    <path d="m 74.207031 32.066406 c 0 2.320313 -3.132812 4.199219 -7 4.199219 c -3.867187 0 -7 -1.878906 -7 -4.199219 c 0 -2.320312 3.132813 -4.203125 7 -4.203125 c 3.867188 0 7 1.882813 7 4.203125 z m 0 0" fill="#d5d7d7"/>
    <path d="m 67 8 c -17.671875 0 -32 8.507812 -32 19 s 14.328125 19 32 19 s 32 -8.507812 32 -19 s -14.328125 -19 -32 -19 z m 0 6 c 13.253906 0 24 5.820312 24 13 s -10.746094 13 -24 13 s -24 -5.820312 -24 -13 s 10.746094 -13 24 -13 z m 0 0" fill="#d5d7d7"/>
    <path d="m 67 8 c -17.671875 0 -32 8.507812 -32 19 c 0.023438 0.332031 0.058594 0.667969 0.109375 1 c 0.894531 -10.074219 14.898437 -17.980469 31.890625 -18 c 16.835938 0.003906 30.789062 7.75 31.921875 17.726562 c 0.03125 -0.242187 0.058594 -0.484374 0.078125 -0.726562 c 0 -10.492188 -14.328125 -19 -32 -19 z m 23.890625 19.769531 c -0.753906 6.855469 -11.214844 12.210938 -23.890625 12.230469 c -12.511719 -0.019531 -22.894531 -5.242188 -23.855469 -12 c -0.070312 0.332031 -0.121093 0.664062 -0.144531 1 c 0 7.179688 10.746094 13 24 13 s 24 -5.820312 24 -13 c 0 -0.410156 -0.039062 -0.820312 -0.109375 -1.230469 z m 0 0" fill="#f6f5f4" fill-opacity="0.47451"/>
    <path d="m 67 46 c -17.671875 0 -32 -8.507812 -32 -19 c 0.023438 -0.332031 0.058594 -0.667969 0.109375 -1 c 0.894531 10.074219 14.898437 17.980469 31.890625 18 c 16.835938 -0.003906 30.789062 -7.75 31.921875 -17.726562 c 0.03125 0.242187 0.058594 0.484374 0.078125 0.726562 c 0 10.492188 -14.328125 19 -32 19 z m 23.890625 -19.769531 c -0.753906 -6.855469 -11.214844 -12.210938 -23.890625 -12.230469 c -12.511719 0.019531 -22.894531 5.242188 -23.855469 12 c -0.070312 -0.332031 -0.121093 -0.664062 -0.144531 -1 c 0 -7.179688 10.746094 -13 24 -13 s 24 5.820312 24 13 c 0 0.410156 -0.039062 0.820312 -0.109375 1.230469 z m 0 0" fill="#c0bfbc"/>
    <path d="m 18 62 h 7.171875 c 1.8125 0 3.546875 -0.71875 4.828125 -2 l 0.585938 -0.585938 c 0.238281 -0.238281 0.59375 -0.308593 0.902343 -0.179687 c 0.308594 0.128906 0.511719 0.429687 0.511719 0.765625 v 40 c 0 0.335938 -0.203125 0.636719 -0.511719 0.765625 c -0.308593 0.128906 -0.664062 0.058594 -0.902343 -0.179687 l -0.585938 -0.585938 c -1.28125 -1.28125 -3.015625 -2 -4.828125 -2 h -7.171875 z m 0 0" fill="url(#g)"/>
    <path d="m 12 56 h 8 c 2.210938 0 4 1.789062 4 4 v 40 c 0 2.210938 -1.789062 4 -4 4 h -8 c -2.210938 0 -4 -1.789062 -4 -4 v -40 c 0 -2.210938 1.789062 -4 4 -4 z m 0 0" fill="url(#h)"/>
    <path d="m 18 99.9375 c 0 1.140625 -0.925781 2.0625 -2.0625 2.0625 c -1.140625 0 -2.0625 -0.921875 -2.0625 -2.0625 s 0.921875 -2.0625 2.0625 -2.0625 c 1.136719 0 2.0625 0.921875 2.0625 2.0625 z m 0 -6.53125 c 0 1.140625 -0.925781 2.0625 -2.0625 2.0625 c -1.140625 0 -2.0625 -0.921875 -2.0625 -2.0625 s 0.921875 -2.0625 2.0625 -2.0625 c 1.136719 0 2.0625 0.921875 2.0625 2.0625 z m 0 -7.28125 c 0 1.140625 -0.925781 2.0625 -2.0625 2.0625 c -1.140625 0 -2.0625 -0.921875 -2.0625 -2.0625 s 0.921875 -2.0625 2.0625 -2.0625 c 1.136719 0 2.0625 0.921875 2.0625 2.0625 z m 0 -10.0625 c 0 1.140625 -0.925781 2.0625 -2.0625 2.0625 c -1.140625 0 -2.0625 -0.921875 -2.0625 -2.0625 s 0.921875 -2.0625 2.0625 -2.0625 c 1.136719 0 2.0625 0.921875 2.0625 2.0625 z m 0 -8 c 0 1.140625 -0.925781 2.0625 -2.0625 2.0625 c -1.140625 0 -2.0625 -0.921875 -2.0625 -2.0625 s 0.921875 -2.0625 2.0625 -2.0625 c 1.136719 0 2.0625 0.921875 2.0625 2.0625 z m 0 -8 c 0 1.140625 -0.925781 2.0625 -2.0625 2.0625 c -1.140625 0 -2.0625 -0.921875 -2.0625 -2.0625 s 0.921875 -2.0625 2.0625 -2.0625 c 1.136719 0 2.0625 0.921875 2.0625 2.0625 z m 0 0" fill="#77767b"/>
    <path d="m 18.0625 100.53125 c 0 1.140625 -0.921875 2.0625 -2.0625 2.0625 s -2.0625 -0.921875 -2.0625 -2.0625 s 0.921875 -2.0625 2.0625 -2.0625 s 2.0625 0.921875 2.0625 2.0625 z m 0 -7.15625 c 0 1.140625 -0.921875 2.0625 -2.0625 2.0625 s -2.0625 -0.921875 -2.0625 -2.0625 s 0.921875 -2.0625 2.0625 -2.0625 s 2.0625 0.921875 2.0625 2.0625 z m 0 -8.0625 c 0 1.140625 -0.921875 2.0625 -2.0625 2.0625 s -2.0625 -0.921875 -2.0625 -2.0625 s 0.921875 -2.0625 2.0625 -2.0625 s 2.0625 0.921875 2.0625 2.0625 z m 0 -10.0625 c 0 1.140625 -0.921875 2.0625 -2.0625 2.0625 s -2.0625 -0.921875 -2.0625 -2.0625 s 0.921875 -2.0625 2.0625 -2.0625 s 2.0625 0.921875 2.0625 2.0625 z m 0 -16 c 0 1.140625 -0.921875 2.0625 -2.0625 2.0625 s -2.0625 -0.921875 -2.0625 -2.0625 s 0.921875 -2.0625 2.0625 -2.0625 s 2.0625 0.921875 2.0625 2.0625 z m 0 8 c 0 1.140625 -0.921875 2.0625 -2.0625 2.0625 s -2.0625 -0.921875 -2.0625 -2.0625 s 0.921875 -2.0625 2.0625 -2.0625 s 2.0625 0.921875 2.0625 2.0625 z m 0 0" fill="#c0bfbc"/>
    <path d="m 119.964844 99.9375 c 0 1.140625 -0.925782 2.0625 -2.0625 2.0625 c -1.140625 0 -2.0625 -0.921875 -2.0625 -2.0625 s 0.921875 -2.0625 2.0625 -2.0625 c 1.136718 0 2.0625 0.921875 2.0625 2.0625 z m 0 -6.53125 c 0 1.140625 -0.925782 2.0625 -2.0625 2.0625 c -1.140625 0 -2.0625 -0.921875 -2.0625 -2.0625 s 0.921875 -2.0625 2.0625 -2.0625 c 1.136718 0 2.0625 0.921875 2.0625 2.0625 z m 0 -7.28125 c 0 1.140625 -0.925782 2.0625 -2.0625 2.0625 c -1.140625 0 -2.0625 -0.921875 -2.0625 -2.0625 s 0.921875 -2.0625 2.0625 -2.0625 c 1.136718 0 2.0625 0.921875 2.0625 2.0625 z m 0 -10.0625 c 0 1.140625 -0.925782 2.0625 -2.0625 2.0625 c -1.140625 0 -2.0625 -0.921875 -2.0625 -2.0625 s 0.921875 -2.0625 2.0625 -2.0625 c 1.136718 0 2.0625 0.921875 2.0625 2.0625 z m 0 -8 c 0 1.140625 -0.925782 2.0625 -2.0625 2.0625 c -1.140625 0 -2.0625 -0.921875 -2.0625 -2.0625 s 0.921875 -2.0625 2.0625 -2.0625 c 1.136718 0 2.0625 0.921875 2.0625 2.0625 z m 0 -8 c 0 1.140625 -0.925782 2.0625 -2.0625 2.0625 c -1.140625 0 -2.0625 -0.921875 -2.0625 -2.0625 s 0.921875 -2.0625 2.0625 -2.0625 c 1.136718 0 2.0625 0.921875 2.0625 2.0625 z m 0 0" fill="#77767b"/>
    <path d="m 120.027344 100.53125 c 0 1.140625 -0.921875 2.0625 -2.0625 2.0625 c -1.136719 0 -2.0625 -0.921875 -2.0625 -2.0625 s 0.925781 -2.0625 2.0625 -2.0625 c 1.140625 0 2.0625 0.921875 2.0625 2.0625 z m 0 -7.15625 c 0 1.140625 -0.921875 2.0625 -2.0625 2.0625 c -1.136719 0 -2.0625 -0.921875 -2.0625 -2.0625 s 0.925781 -2.0625 2.0625 -2.0625 c 1.140625 0 2.0625 0.921875 2.0625 2.0625 z m 0 -8.0625 c 0 1.140625 -0.921875 2.0625 -2.0625 2.0625 c -1.136719 0 -2.0625 -0.921875 -2.0625 -2.0625 s 0.925781 -2.0625 2.0625 -2.0625 c 1.140625 0 2.0625 0.921875 2.0625 2.0625 z m 0 -10.0625 c 0 1.140625 -0.921875 2.0625 -2.0625 2.0625 c -1.136719 0 -2.0625 -0.921875 -2.0625 -2.0625 s 0.925781 -2.0625 2.0625 -2.0625 c 1.140625 0 2.0625 0.921875 2.0625 2.0625 z m 0 -16 c 0 1.140625 -0.921875 2.0625 -2.0625 2.0625 c -1.136719 0 -2.0625 -0.921875 -2.0625 -2.0625 s 0.925781 -2.0625 2.0625 -2.0625 c 1.140625 0 2.0625 0.921875 2.0625 2.0625 z m 0 8 c 0 1.140625 -0.921875 2.0625 -2.0625 2.0625 c -1.136719 0 -2.0625 -0.921875 -2.0625 -2.0625 s 0.925781 -2.0625 2.0625 -2.0625 c 1.140625 0 2.0625 0.921875 2.0625 2.0625 z m 0 0" fill="#c0bfbc"/>
</svg>
