<?xml version="1.0" encoding="UTF-8"?>
<svg height="16px" viewBox="0 0 16 16" width="16px" xmlns="http://www.w3.org/2000/svg">
    <path d="m 8 0 c -4.40625 0 -8 3.59375 -8 8 s 3.59375 8 8 8 s 8 -3.59375 8 -8 s -3.59375 -8 -8 -8 z m 0 2.007812 c 3.324219 0 5.992188 2.667969 5.992188 5.992188 s -2.667969 5.992188 -5.992188 5.992188 s -5.992188 -2.667969 -5.992188 -5.992188 s 2.667969 -5.992188 5.992188 -5.992188 z m 0 0"/>
    <path d="m 2.554688 3.167969 l -1.109376 1.664062 l 6.554688 4.367188 l 6.554688 -4.367188 l -1.109376 -1.664062 l -5.445312 3.632812 z m 0 0"/>
    <path d="m 7 8 v 7 h 2 v -7 z m 0 0"/>
    <path d="m 11 8 c 0 1.65625 -1.34375 3 -3 3 s -3 -1.34375 -3 -3 s 1.34375 -3 3 -3 s 3 1.34375 3 3 z m 0 0"/>
</svg>
